<?xml version="1.0" standalone="no"?>
<!DOCTYPE svg PUBLIC "-//W3C//DTD SVG 20010904//EN"
 "http://www.w3.org/TR/2001/REC-SVG-20010904/DTD/svg10.dtd">
<svg version="1.0" xmlns="http://www.w3.org/2000/svg"
 width="700.000000pt" height="700.000000pt" viewBox="0 0 700.000000 700.000000"
 preserveAspectRatio="xMidYMid meet">
<metadata>
Created by potrace 1.14, written by Peter Selinger 2001-2017
</metadata>
<g transform="translate(0.000000,700.000000) scale(0.100000,-0.100000)"
fill="#000000" stroke="none">
<path d="M2337 6227 c-177 -19 -352 -146 -425 -308 -54 -119 -51 -16 -52
-1861 0 -1202 3 -1722 11 -1755 6 -26 12 -55 14 -64 5 -26 55 -121 84 -159 43
-59 113 -118 182 -155 131 -69 12 -65 1900 -65 1665 0 1707 1 1776 20 215 59
376 240 400 449 4 31 7 817 7 1746 -1 1570 -2 1694 -18 1748 -58 198 -194 335
-391 393 -56 17 -163 18 -1740 18 -924 1 -1711 -2 -1748 -7z m2803 -1084 l0
-273 -27 -1 c-16 0 -200 0 -410 -1 l-383 0 0 -785 c0 -664 -2 -795 -15 -858
-55 -265 -261 -472 -529 -530 -36 -8 -103 -12 -166 -10 -292 9 -536 195 -625
477 -31 99 -39 238 -18 336 15 75 66 201 94 233 10 12 19 26 19 30 0 17 150
156 202 187 115 68 244 101 381 96 101 -3 186 -26 286 -76 46 -24 87 -44 91
-46 4 -1 7 325 8 725 0 400 1 737 1 748 1 20 8 20 546 20 l545 0 0 -272z"/>
<path d="M768 5133 c-2 -5 -3 -883 -3 -1953 1 -1811 3 -1949 19 -2003 62 -211
211 -352 427 -403 13 -4 903 -7 1976 -8 l1953 -1 0 273 0 272 -72 0 c-40 1
-902 1 -1914 2 l-1841 0 -1 1882 c0 1034 -1 1896 -1 1914 l-1 32 -269 0 c-149
0 -271 -3 -273 -7z"/>
</g>
</svg>
